<?xml version="1.0" encoding="UTF-8"?>
<svg xmlns="http://www.w3.org/2000/svg" xmlns:xlink="http://www.w3.org/1999/xlink" width="35px" height="40px" viewBox="0 0 35 40">
  <!-- Generator: Sketch 52.6 (67491) - http://www.bohemiancoding.com/sketch -->
  <title>icon 2</title>
  <desc>Created with Sketch.</desc>
  <defs>
    <polygon id="path-1" points="0 0 34.2521685 0 34.2521685 39.4661497 0 39.4661497"></polygon>
  </defs>
  <g id="Metacell-Homepage" stroke="none" stroke-width="1" fill="none" fill-rule="evenodd">
    <g id="Metacell_Our-Services" transform="translate(-503.000000, -553.000000)">
      <g id="Header" transform="translate(0.000000, 74.000000)">
        <g id="Services" transform="translate(140.000000, 479.000000)">
          <g id="Computational-" transform="translate(360.000000, 0.000000)">
            <g id="icon-2">
              <g id="icon/40px/software" transform="translate(0.892913, 0.517359)">
                <g id="lines" transform="translate(2.000000, 0.000000)">
                  <g id="symbol" transform="translate(0.519292, 0.000000)">
                    <mask id="mask-2" fill="white">
                      <use xlink:href="#path-1"></use>
                    </mask>
                    <g id="Clip-2"></g>
                    <path d="M32.9353504,29.0958002 L32.5201347,28.8471325 C32.2080475,28.6601308 31.8037159,28.7610316 31.6164482,29.0726755 C31.4294892,29.3846277 31.5302247,29.788385 31.8426207,29.9750784 L32.2454085,30.2164232 L17.7848793,37.725168 L17.7848793,21.5522913 L18.1992459,21.8004193 C18.3053848,21.8643206 18.4226395,21.8943827 18.5378099,21.8943827 C18.7618982,21.8943827 18.9798884,21.7805321 19.1032412,21.5749535 C19.290123,21.2630012 19.1894647,20.859244 18.8770687,20.6725505 L18.4065835,20.3905833 L32.9353504,11.685829 L32.9353504,29.0958002 Z M2.63626072,29.0732921 C2.44907015,28.7616482 2.04466134,28.6601308 1.73226537,28.8477492 L1.31735844,29.0962627 L1.31735844,11.6861373 L15.8463569,20.3909688 L15.3754086,20.6730901 C15.0638618,20.8597835 14.9625859,21.2636179 15.1495449,21.575493 C15.2728205,21.7805321 15.4908878,21.8943827 15.7145902,21.8943827 C15.8300694,21.8943827 15.9474012,21.8643206 16.0532314,21.801036 L16.4675208,21.552985 L16.4675208,37.725168 L2.00807233,30.2168857 L2.41016539,29.9760034 C2.72256136,29.7890016 2.82321971,29.3852444 2.63626072,29.0732921 Z M16.4675208,1.81990631 L16.4675208,2.3022105 C16.4675208,2.6653454 16.762703,2.95979993 17.1263544,2.95979993 C17.4906234,2.95979993 17.7848793,2.6653454 17.7848793,2.3022105 L17.7848793,1.81898132 L32.3138006,10.5241982 L17.7848793,19.2292608 L17.7848793,18.74634 C17.7848793,18.3832051 17.4900059,18.0887505 17.1263544,18.0887505 C16.762703,18.0887505 16.4675208,18.3832051 16.4675208,18.74634 L16.4675208,19.2287212 L1.93913989,10.5244294 L16.4675208,1.81990631 Z M34.2463019,10.4376347 C34.2452213,10.4287702 34.2427511,10.4202141 34.2411301,10.4114267 C34.2377336,10.3919249 34.2344916,10.372423 34.2293969,10.3534608 C34.2265408,10.3429776 34.2223724,10.333034 34.2190532,10.3227049 C34.2136497,10.3059781 34.2085551,10.289097 34.2018394,10.2729097 C34.1972078,10.2616557 34.1912641,10.2510183 34.1859378,10.2400727 C34.1789133,10.2256583 34.1724292,10.2109355 34.1644012,10.1970607 C34.1576855,10.1853442 34.1497348,10.1745527 34.1424015,10.1632986 C34.1342192,10.1510426 34.1265772,10.138401 34.1176229,10.1266845 C34.1089002,10.1151993 34.0990196,10.104639 34.089525,10.0937704 C34.0804164,10.0833643 34.0717709,10.0725727 34.0619675,10.0626291 C34.0514694,10.0520688 34.040045,10.0425106 34.0287749,10.032567 C34.0185084,10.0235484 34.0086278,10.0141443 33.9977437,10.0057423 C33.9862421,9.99680079 33.9738914,9.98901548 33.9618495,9.98084475 C33.9519689,9.97413859 33.9427831,9.9666616 33.9325165,9.96049501 L17.4649957,0.0939556626 C17.4632203,0.0929535922 17.4613677,0.0922598511 17.4596694,0.0912577807 C17.4111157,0.0626602331 17.3586251,0.0401521902 17.3031241,0.0246586401 C17.3004996,0.0239648991 17.297875,0.0233482404 17.2952505,0.0226544993 C17.2706263,0.0161795829 17.2456161,0.0110921485 17.2199883,0.00739219628 C17.2165919,0.00692970225 17.2131954,0.00631304354 17.209799,0.0058505495 C17.1823958,0.00238184426 17.1546839,-7.70823386e-06 17.1263544,-7.70823386e-06 C17.0983337,-7.70823386e-06 17.0709306,0.00230476193 17.0438362,0.00569638483 C17.0385872,0.00639012588 17.0332609,0.00731511394 17.0280118,0.00816301966 C17.0053946,0.0115546426 16.9832405,0.0160254182 16.9613952,0.0216524289 C16.9561461,0.023039911 16.9508971,0.0242732284 16.9455708,0.0257377929 C16.8924627,0.0408459313 16.8422879,0.0625060684 16.7955868,0.089716134 C16.7928079,0.0912577807 16.7898746,0.0923369335 16.7871729,0.0939556626 L0.319343248,9.96049501 C0.307069722,9.96789492 0.295954076,9.9766823 0.284220894,9.98477595 C0.274803471,9.99132795 0.264922897,9.99734037 0.255891435,10.0043549 C0.241302149,10.0156089 0.227947936,10.0280191 0.214439338,10.0403523 C0.206874523,10.0472897 0.198846557,10.0536876 0.191667702,10.0609333 C0.178236297,10.0744227 0.166039963,10.0889913 0.153920821,10.1036369 C0.147899846,10.1108827 0.141338527,10.1175888 0.135549128,10.1250658 C0.123815946,10.1404823 0.11347222,10.1568237 0.103128494,10.1731652 C0.0982653987,10.1807963 0.0928619596,10.1880421 0.0883076324,10.1958274 C0.0785814421,10.2126313 0.0704762836,10.2303603 0.062293933,10.2480121 C0.0585115257,10.2561829 0.0539571985,10.2638911 0.0505607511,10.272216 C0.0430731284,10.2901762 0.0373609214,10.308753 0.0314943304,10.3273299 C0.0287926109,10.3360402 0.0252417795,10.3443651 0.022848828,10.3532295 C0.0175225809,10.3728084 0.0141261335,10.393004 0.0106524941,10.4131996 C0.00926303836,10.4213703 0.00694727877,10.4293098 0.00586659096,10.4375576 C0.00200699165,10.4661552 0,10.4951381 0,10.5244294 L0,30.2575081 C0,30.2617476 0.000771919864,30.2659101 0.00084911185,30.2701496 C0.00131226377,30.2935826 0.00277891151,30.3170927 0.00578939898,30.3404487 C0.00617535891,30.343532 0.00617535891,30.3467694 0.00663851083,30.3498527 C0.0102665342,30.3756753 0.0160559332,30.4012667 0.022848828,30.4267809 C0.0248558196,30.4344121 0.0272487712,30.4418891 0.0295645308,30.4494431 C0.0354311217,30.4687137 0.0423012085,30.4878301 0.0500204072,30.5067153 C0.0527221267,30.5131902 0.0551150783,30.5197422 0.0580483738,30.52614 C0.0687008679,30.5498814 0.0804340498,30.5733915 0.0940970314,30.596285 C0.0945601833,30.5971329 0.0951777192,30.5976725 0.0956408711,30.5985204 C0.096181215,30.5993683 0.0967987509,30.6001391 0.0974162868,30.600987 C0.144812166,30.6783777 0.205871028,30.742356 0.275575391,30.7920741 C0.279049031,30.7945408 0.282831438,30.7964678 0.286305077,30.7989344 C0.306915338,30.8129634 0.328065942,30.8261445 0.349988466,30.8377839 C0.35168669,30.8386319 0.35323053,30.8398652 0.354928753,30.8407902 L16.8227584,39.3917652 C16.8291653,39.3950798 16.8358038,39.3973922 16.8422879,39.4004755 C16.8556421,39.4068734 16.8691507,39.41304 16.8828909,39.4185128 C16.8962451,39.4237544 16.9097537,39.4282252 16.9232623,39.432696 C16.9360762,39.4367813 16.9487357,39.441175 16.9617039,39.4445666 C16.9783774,39.4488832 16.9952053,39.4518895 17.0121103,39.4548957 C17.022454,39.4566686 17.0327206,39.4591352 17.0431415,39.4605227 C17.0707762,39.4640685 17.0985653,39.4661497 17.1263544,39.4661497 C17.1542207,39.4661497 17.1820871,39.4640685 17.209799,39.4605227 C17.2196796,39.4592123 17.2293286,39.4568998 17.2391319,39.455204 C17.2568089,39.4521207 17.2742543,39.4488832 17.2916225,39.4443354 C17.3039732,39.441175 17.3160152,39.4370126 17.3281343,39.4330814 C17.342106,39.4285335 17.3560778,39.4239086 17.369818,39.4184357 C17.3844073,39.4126545 17.3986878,39.4060255 17.4128911,39.3991651 C17.4182945,39.3965443 17.4240839,39.3945402 17.4294102,39.3917652 L33.896931,30.8407902 C33.8979345,30.8403277 33.8987064,30.8395568 33.8997099,30.8390943 C33.9982841,30.7875263 34.0844304,30.7104439 34.1480365,30.610314 C34.1508155,30.6059974 34.1541347,30.6020662 34.1567592,30.5975954 C34.1572996,30.5969016 34.1579171,30.5962079 34.1583803,30.59536 C34.1721976,30.5723124 34.184008,30.5488023 34.1946605,30.5248296 C34.1969763,30.5198193 34.1988289,30.5146548 34.2009903,30.5095673 C34.2098673,30.4882926 34.2175865,30.4667866 34.2240707,30.4451265 C34.2256145,30.439962 34.2272355,30.4350287 34.228625,30.4298642 C34.2436774,30.3748274 34.2513194,30.3188656 34.2517826,30.263058 C34.2518598,30.2612081 34.2521685,30.2594352 34.2521685,30.2575081 L34.2521685,10.5244294 C34.2521685,10.4951381 34.2501615,10.4661552 34.2463019,10.4376347 Z" id="Fill-1" fill="#333333" mask="url(#mask-2)"></path>
                  </g>
                  <path d="M10.3918194,24.3902439 C10.1757024,24.3902439 9.96546652,24.277307 9.84650163,24.0736076 C9.66626758,23.7644648 9.76394088,23.3636419 10.0646287,23.1784468 L12.6964478,21.5562688 C12.9977313,21.3711501 13.3870845,21.4714705 13.5679885,21.7803075 C13.7485203,22.0894504 13.6505493,22.4899674 13.3501592,22.6754684 L10.7183401,24.2973405 C10.6154556,24.3600407 10.502893,24.3902439 10.3918194,24.3902439 Z M4.53822039,28.2926829 C4.32216077,28.2926829 4.1119084,28.1797453 3.99323195,27.9763506 C3.81261147,27.6669 3.90977129,27.2663805 4.21107843,27.0811842 L6.84250895,25.4589964 C7.14381609,25.2735707 7.53379552,25.3735859 7.7141182,25.6827306 C7.89466423,25.9921812 7.79757886,26.3927006 7.49627173,26.5778969 L4.8648412,28.2000848 C4.76187412,28.2627854 4.64937719,28.2926829 4.53822039,28.2926829 Z M17.0433438,8.82548114 L17.0780725,5.73424598 C17.0823655,5.38122135 17.3752168,5.09096223 17.7331847,5.08648788 C18.0910821,5.08249012 18.3776052,5.3645621 18.3741,5.71815558 L18.3391091,8.80954826 C18.3352316,9.16267062 18.0419648,9.45283201 17.6841503,9.45756162 C17.4482744,9.46050173 17.2431891,9.33846127 17.1318806,9.15321278 C17.0746734,9.05800412 17.0425886,8.94596341 17.0433438,8.82548114 Z M17.003113,15.6427268 C16.9458631,15.5474468 16.91355,15.4356198 16.914263,15.3150666 L16.9494625,12.2240018 C16.953022,11.8703481 17.2463315,11.5808469 17.6045705,11.5762262 C17.9624323,11.5715716 18.2490163,11.8543376 18.2452602,12.2081095 L18.2100607,15.2991742 C18.2065011,15.652828 17.91323,15.942393 17.5549526,15.9469498 C17.3194864,15.9499803 17.114392,15.827926 17.003113,15.6427268 Z M23.754522,24.3902439 C23.6434484,24.3902439 23.5308859,24.3600407 23.4280014,24.2973405 L20.7961823,22.6754684 C20.4957922,22.4899674 20.3978211,22.0894504 20.5783529,21.7803075 C20.759257,21.4714705 21.1486102,21.3711501 21.4498936,21.5562688 L24.0817127,23.1784468 C24.3824006,23.3636419 24.4800739,23.7644648 24.2998398,24.0736076 C24.1808749,24.277307 23.9706391,24.3902439 23.754522,24.3902439 Z M29.6081211,28.2926829 C29.4969643,28.2926829 29.3844673,28.2627854 29.2815003,28.2000848 L26.6500697,26.5778969 C26.3487626,26.3927006 26.2516772,25.9921812 26.4322233,25.6827306 C26.6125459,25.3735859 27.0025254,25.2735707 27.3038325,25.4589964 L29.935263,27.0811842 C30.2365702,27.2663805 30.33373,27.6669 30.1531095,27.9763506 C30.0344331,28.1797453 29.8241807,28.2926829 29.6081211,28.2926829 Z" fill="#1DA0CF"></path>
                </g>
              </g>
            </g>
          </g>
        </g>
      </g>
    </g>
  </g>
</svg>
