<?xml version="1.0" encoding="UTF-8"?>
<svg xmlns="http://www.w3.org/2000/svg" xmlns:xlink="http://www.w3.org/1999/xlink" width="37px" height="36px" viewBox="0 0 37 36">
  <!-- Generator: Sketch 52.6 (67491) - http://www.bohemiancoding.com/sketch -->
  <title>icon 3</title>
  <desc>Created with Sketch.</desc>
  <defs>
    <polygon id="path-1" points="2.11394665e-05 0 36.0768954 0 36.0768954 35.9722011 2.11394665e-05 35.9722011"></polygon>
  </defs>
  <g id="Metacell-Homepage" stroke="none" stroke-width="1" fill="none" fill-rule="evenodd">
    <g id="Metacell_Our-Services" transform="translate(-842.000000, -555.000000)">
      <g id="Header" transform="translate(0.000000, 74.000000)">
        <g id="Services" transform="translate(140.000000, 479.000000)">
          <g id="Consulting" transform="translate(700.000000, 0.000000)">
            <g id="icon-3">
              <g id="icon/40px/consulting">
                <g id="consulting" transform="translate(2.000000, 2.000000)">
                  <path d="M19.1323194,26.0142781 C13.4867747,26.0142781 8.89396249,21.4349483 8.89396249,15.8059764 C8.89396249,10.1770734 13.4867747,5.59767474 19.1323194,5.59767474 C24.7775187,5.59767474 29.3706763,10.1770734 29.3706763,15.8059764 C29.3706763,21.4349483 24.7775187,26.0142781 19.1323194,26.0142781 M19.1323194,4.36026936 C12.8024537,4.36026936 7.65291394,9.49469238 7.65291394,15.8059764 C7.65291394,22.117536 12.8024537,27.2516835 19.1323194,27.2516835 C25.4619088,27.2516835 30.6116558,22.117536 30.6116558,15.8059764 C30.6116558,9.49469238 25.4619088,4.36026936 19.1323194,4.36026936" id="Fill-1" fill="#1DA0CF" fill-rule="nonzero"></path>
                  <mask id="mask-2" fill="white">
                    <use xlink:href="#path-1"></use>
                  </mask>
                  <g id="Clip-4"></g>
                  <path d="M18.355279,34.0790927 C16.0888463,34.0790927 13.9036597,33.6307046 11.8490445,32.7465045 C12.1726897,32.1729865 12.4090289,31.5443157 12.5400936,30.8783378 C12.5416438,30.8701878 12.5431941,30.8620378 12.5448148,30.8538879 C12.5551731,30.7999296 12.5648973,30.7457604 12.5738463,30.6913103 C12.5756784,30.6802095 12.5775809,30.669179 12.579413,30.6580782 C12.5991432,30.5342129 12.6154206,30.4092234 12.6278929,30.2831099 C12.6294431,30.2675828 12.630641,30.2519152 12.6320503,30.2363882 C12.6362077,30.1902987 12.6400128,30.1442093 12.6431837,30.0979794 C12.644593,30.0776748 12.6458614,30.0572999 12.6470593,30.0369953 C12.6496665,29.9930136 12.6517805,29.9488914 12.6534716,29.904699 C12.6541763,29.885659 12.6550218,29.8668298 12.6555856,29.8477898 C12.6574177,29.7858923 12.6586156,29.723784 12.6586156,29.6613244 C12.6586156,26.1816442 9.81965567,23.3507287 6.32945928,23.3507287 C6.26702739,23.3507287 6.20480689,23.3517826 6.14279779,23.3536796 C6.12313808,23.3542416 6.10354885,23.3550847 6.08388914,23.3558576 C6.04076463,23.3574735 5.99771058,23.359511 5.95479747,23.3620403 C5.93288289,23.3633049 5.91110924,23.3647101 5.88926512,23.3661855 C5.84592921,23.3691364 5.80273424,23.3726493 5.75968019,23.3765135 C5.74072513,23.3781997 5.72169962,23.3797454 5.70281502,23.3815721 C5.64193336,23.387544 5.58126309,23.3942888 5.52087468,23.401947 C5.51298262,23.4030008 5.50516101,23.4042655 5.49719848,23.4052491 C5.4437861,23.4123452 5.39051464,23.4200033 5.33745458,23.4283641 C5.31913371,23.4312447 5.30074237,23.4344063 5.28249197,23.4374976 C5.23774676,23.4450153 5.19321295,23.4528139 5.14889054,23.4612449 C5.13176757,23.4644768 5.1146446,23.4677087 5.09752163,23.4710811 C5.0422067,23.4819711 4.98717362,23.4935637 4.93235193,23.5059292 C4.92805358,23.5068425 4.92375522,23.5077559 4.91945686,23.5087395 C4.78930821,23.5383885 4.66070979,23.572253 4.5336616,23.6097709 C4.53323881,23.6099114 4.53288648,23.6100519 4.53246369,23.6101222 C4.07669679,23.7449477 3.64228076,23.9295864 3.23548696,24.1577852 C2.34791122,22.1097573 1.89897942,19.9314004 1.89897942,17.6710521 C1.89897942,8.62368688 9.28151531,1.26273039 18.355279,1.26273039 C27.4290427,1.26273039 34.8115786,8.62368688 34.8115786,17.6710521 C34.8115786,26.7179254 27.4290427,34.0790927 18.355279,34.0790927 M6.32945928,34.7100117 C3.53756993,34.7100117 1.26592286,32.4450264 1.26592286,29.6613244 C1.26592286,28.0118013 2.06372633,26.5444578 3.29474793,25.6225291 C3.30982741,25.6133253 3.3249069,25.6040512 3.3393522,25.5935125 C3.76770826,25.2800202 4.23369257,25.0392451 4.72377587,24.8742788 C4.73998279,24.8688689 4.75604878,24.863178 4.77232617,24.8579086 C4.81467557,24.844138 4.85730683,24.8314213 4.90000855,24.8187748 C4.93397263,24.8088684 4.96800717,24.7991025 5.00218264,24.7897581 C5.03642858,24.7804138 5.07067451,24.7713505 5.10506138,24.7627087 C5.15762818,24.7496407 5.21054731,24.737486 5.26367784,24.7261041 C5.2826329,24.7219589 5.30151749,24.7173921 5.32054301,24.7135279 C5.39727927,24.6980008 5.47472018,24.6840897 5.55265435,24.6720755 C5.56209664,24.6706001 5.57167987,24.669476 5.58112216,24.6681411 C5.65081194,24.6577429 5.7209245,24.6488201 5.79153032,24.6413727 C5.80703259,24.6396865 5.82260534,24.6382813 5.83810761,24.6367356 C5.90779739,24.6300611 5.97790995,24.6246512 6.04837484,24.620787 C6.05880364,24.6201547 6.06923244,24.6193819 6.07973171,24.6189603 C6.16245749,24.6148853 6.24567653,24.6126371 6.32945928,24.6126371 C9.12127816,24.6126371 11.3925729,26.8774819 11.3927138,29.6611136 C11.3927138,29.6618162 11.3927138,29.6625891 11.3927138,29.6632916 C11.3926434,29.7409973 11.390318,29.8181408 11.3867948,29.8949331 C11.3855969,29.9208584 11.3837648,29.9467134 11.3822146,29.9725684 C11.3790436,30.0244893 11.3750976,30.0761994 11.370306,30.1276986 C11.3675579,30.1574881 11.3647393,30.1872074 11.3614274,30.2168564 C11.3560721,30.2654048 11.3496598,30.3135317 11.3429656,30.3616586 C11.3388082,30.3910968 11.3352145,30.4206755 11.3305638,30.4499732 C11.3197827,30.5183345 11.3075218,30.5862742 11.2939925,30.6537221 C11.285114,30.6977741 11.2748261,30.7414747 11.2647496,30.7852456 C11.2586896,30.8115924 11.252841,30.8380095 11.2463583,30.8641456 C11.2340269,30.9140992 11.2207795,30.963842 11.2068979,31.0133038 C11.2025291,31.0289714 11.1980193,31.044639 11.1935096,31.0601661 C11.0294673,31.6230752 10.7659287,32.1568271 10.4087421,32.6421008 C10.3967631,32.6583304 10.3861229,32.6752627 10.375835,32.6924057 C9.45105384,33.9166556 7.98150859,34.7100117 6.32945928,34.7100117 M30.3810987,1.26216832 C32.8242573,1.26216832 34.8115786,3.24366165 34.8115786,5.6799366 C34.8115786,6.81453703 34.3838567,7.87768481 33.6185375,8.69057273 C32.0907178,6.11083043 29.9492194,3.97589309 27.3617487,2.45241328 C28.1763228,1.68947898 29.2435136,1.26273039 30.3810987,1.26216832 M36.0769166,5.6799366 C36.0769166,2.54824552 33.5216483,-2.1077474e-05 30.3801827,-2.1077474e-05 C28.7737241,-2.1077474e-05 27.277825,0.660687473 26.200276,1.82908211 C23.8337831,0.659141791 21.1701399,-2.1077474e-05 18.3547153,-2.1077474e-05 C8.58271502,-2.1077474e-05 0.632232118,7.92686559 0.632232118,17.670209 C0.632232118,20.1933231 1.15275625,22.6232046 2.179782,24.9001338 C0.845106546,26.0579897 2.11394665e-05,27.7630871 2.11394665e-05,29.6613244 C2.11394665e-05,33.1412856 2.83954475,35.9722011 6.32945928,35.9722011 C8.23349103,35.9722011 9.94367387,35.1295237 11.1048648,33.7987623 C13.3886318,34.8224249 15.824603,35.3412821 18.355279,35.3412821 C28.1270679,35.3412821 36.0769166,27.4133416 36.0769166,17.670209 C36.0769166,14.8629002 35.4157445,12.2070682 34.2423632,9.84751527 C35.4140534,8.77298565 36.0769166,7.28175437 36.0769166,5.6799366" id="Fill-3" fill="#333333" mask="url(#mask-2)"></path>
                </g>
              </g>
            </g>
          </g>
        </g>
      </g>
    </g>
  </g>
</svg>
