<?xml version="1.0" encoding="UTF-8"?>
<svg xmlns="http://www.w3.org/2000/svg" xmlns:xlink="http://www.w3.org/1999/xlink" width="40px" height="40px" viewBox="0 0 40 40">
  <!-- Generator: Sketch 52.6 (67491) - http://www.bohemiancoding.com/sketch -->
  <title>icon 1</title>
  <desc>Created with Sketch.</desc>
  <g id="Metacell-Homepage" stroke="none" stroke-width="1" fill="none" fill-rule="evenodd">
    <g id="Metacell_Our-Services" transform="translate(-140.000000, -553.000000)">
      <g id="Header" transform="translate(0.000000, 74.000000)">
        <g id="Services" transform="translate(140.000000, 479.000000)">
          <g id="Exploration">
            <g id="icon-1">
              <g id="icon/40px/data" transform="translate(0.000000, 0.646454)">
                <g id="data">
                  <path d="M18.9256897,35.2110419 L21.038524,35.2110419 L27.3081503,29.0896241 L27.3081503,26.7580881 C27.3081503,26.398272 27.6069255,26.1075114 27.9745773,26.1075114 L30.3629177,26.1075114 L35.9679785,20.6366703 L35.9679785,18.5731792 L29.6964907,12.45267 L27.3081503,12.45267 C26.9404985,12.45267 26.642654,12.1619094 26.642654,11.8020933 L26.642654,9.47055728 L21.038524,3.99971615 L18.9256897,3.99971615 L13.3206289,9.47055728 L13.3206289,11.8020933 C13.3206289,12.1619094 13.0227845,12.45267 12.6551327,12.45267 L10.2667923,12.45267 L3.99530446,18.5731792 L3.99530446,20.6366703 L10.2667923,26.7580881 L12.6551327,26.7580881 C13.0227845,26.7580881 13.3206289,27.0488487 13.3206289,27.4077562 L13.3206289,29.7402008 L18.9256897,35.2110419 Z M21.3140301,36.5112867 L18.6501836,36.5112867 C18.4733384,36.5112867 18.3039394,36.4431397 18.179217,36.3204751 L12.1850969,30.4689194 C12.0594437,30.3462548 11.9896364,30.1817934 11.9896364,30.0091543 L11.9896364,28.0583329 L9.99128612,28.0583329 C9.81444096,28.0583329 9.64504191,27.9901859 9.52031954,27.8675213 L2.85977238,21.3653889 C2.73411924,21.2427243 2.66431194,21.0782629 2.66431194,20.9056238 L2.66431194,18.3051343 C2.66431194,18.1315866 2.73411924,17.9662166 2.85977238,17.8444606 L9.52031954,11.3423282 C9.64504191,11.2205722 9.81444096,11.1515166 9.99128612,11.1515166 L11.9896364,11.1515166 L11.9896364,9.20160379 C11.9896364,9.02805609 12.0594437,8.86359467 12.1850969,8.74183869 L18.179217,2.88937437 C18.3048701,2.7676184 18.4733384,2.69856277 18.6501836,2.69856277 L21.3140301,2.69856277 C21.4908753,2.69856277 21.6602743,2.7676184 21.7859275,2.88937437 L27.7800476,8.74183869 C27.90477,8.86359467 27.9755081,9.02805609 27.9755081,9.20160379 L27.9755081,11.1515166 L29.9738584,11.1515166 C30.1497728,11.1515166 30.3201026,11.2205722 30.4438942,11.3423282 L37.1053721,17.8444606 C37.2300945,17.9671252 37.3008325,18.1315866 37.3008325,18.3051343 L37.3008325,20.9056238 C37.3008325,21.0782629 37.2300945,21.2436329 37.1053721,21.3653889 L31.1103212,27.2178532 C30.9855988,27.3396092 30.8161998,27.4077562 30.6393546,27.4077562 L28.6410043,27.4077562 L28.6410043,29.3585776 C28.6410043,29.5321253 28.571197,29.6965867 28.4464746,29.8183427 L21.7859275,36.3204751 C21.6602743,36.4431397 21.4908753,36.5112867 21.3140301,36.5112867 Z" id="lines" fill="#333333"></path>
                  <path d="M19.3161452,2.69901709 L20.6489993,2.69901709 L20.6489993,1.39877234 L19.3161452,1.39877234 L19.3161452,2.69901709 Z M21.3144955,3.99926184 L18.650649,3.99926184 C18.2829972,3.99926184 17.9842219,3.70940993 17.9842219,3.34959378 L17.9842219,0.748195647 C17.9842219,0.388379489 18.2829972,0.0976189578 18.650649,0.0976189578 L21.3144955,0.0976189578 C21.6821473,0.0976189578 21.9809225,0.388379489 21.9809225,0.748195647 L21.9809225,3.34959378 C21.9809225,3.70940993 21.6821473,3.99926184 21.3144955,3.99926184 Z M27.9750427,11.1519709 L29.306966,11.1519709 L29.306966,9.85172616 L27.9750427,9.85172616 L27.9750427,11.1519709 Z M29.973393,12.4522157 L27.3095464,12.4522157 C26.9418946,12.4522157 26.6431194,12.1623638 26.6431194,11.8025476 L26.6431194,9.20114947 C26.6431194,8.84224194 26.9418946,8.55148141 27.3095464,8.55148141 L29.973393,8.55148141 C30.3410448,8.55148141 30.63982,8.84224194 30.63982,9.20114947 L30.63982,11.8025476 C30.63982,12.1623638 30.3410448,12.4522157 29.973393,12.4522157 Z M10.6572478,11.1519709 L11.989171,11.1519709 L11.989171,9.85172616 L10.6572478,9.85172616 L10.6572478,11.1519709 Z M12.6555981,12.4522157 L9.99082074,12.4522157 C9.62316896,12.4522157 9.32532448,12.1623638 9.32532448,11.8025476 L9.32532448,9.20114947 C9.32532448,8.84224194 9.62316896,8.55148141 9.99082074,8.55148141 L12.6555981,8.55148141 C13.0232498,8.55148141 13.3220251,8.84224194 13.3220251,9.20114947 L13.3220251,11.8025476 C13.3220251,12.1623638 13.0232498,12.4522157 12.6555981,12.4522157 Z M28.6414697,28.7084553 L29.973393,28.7084553 L29.973393,27.4082105 L28.6414697,27.4082105 L28.6414697,28.7084553 Z M30.63982,30.0087 L27.9750427,30.0087 C27.6073909,30.0087 27.3095464,29.7188481 27.3095464,29.3590319 L27.3095464,26.7576338 C27.3095464,26.3978177 27.6073909,26.1070571 27.9750427,26.1070571 L30.63982,26.1070571 C31.006541,26.1070571 31.3053163,26.3978177 31.3053163,26.7576338 L31.3053163,29.3590319 C31.3053163,29.7188481 31.006541,30.0087 30.63982,30.0087 Z M10.6572478,29.3590319 L11.989171,29.3590319 L11.989171,28.0587872 L10.6572478,28.0587872 L10.6572478,29.3590319 Z M12.6555981,30.6592767 L9.99082074,30.6592767 C9.62316896,30.6592767 9.32532448,30.3685162 9.32532448,30.0087 L9.32532448,27.4082105 C9.32532448,27.0483943 9.62316896,26.7576338 9.99082074,26.7576338 L12.6555981,26.7576338 C13.0232498,26.7576338 13.3220251,27.0483943 13.3220251,27.4082105 L13.3220251,30.0087 C13.3220251,30.3685162 13.0232498,30.6592767 12.6555981,30.6592767 Z M37.3003672,20.2555014 L38.6322904,20.2555014 L38.6322904,18.954348 L37.3003672,18.954348 L37.3003672,20.2555014 Z M39.2987175,21.5557462 L36.6339401,21.5557462 C36.2662884,21.5557462 35.9684439,21.2649856 35.9684439,20.9051695 L35.9684439,18.30468 C35.9684439,17.9457725 36.2662884,17.6541033 36.6339401,17.6541033 L39.2987175,17.6541033 C39.6663692,17.6541033 39.9651445,17.9457725 39.9651445,18.30468 L39.9651445,20.9051695 C39.9651445,21.2649856 39.6663692,21.5557462 39.2987175,21.5557462 Z M1.33192328,20.2555014 L2.66384656,20.2555014 L2.66384656,18.954348 L1.33192328,18.954348 L1.33192328,20.2555014 Z M3.33027358,21.5557462 L0.666427022,21.5557462 C0.298775243,21.5557462 8.39328607e-13,21.2649856 8.39328607e-13,20.9051695 L8.39328607e-13,18.30468 C8.39328607e-13,17.9457725 0.298775243,17.6541033 0.666427022,17.6541033 L3.33027358,17.6541033 C3.69792536,17.6541033 3.99576984,17.9457725 3.99576984,18.30468 L3.99576984,20.9051695 C3.99576984,21.2649856 3.69792536,21.5557462 3.33027358,21.5557462 Z M19.3161452,37.8119858 L20.6489993,37.8119858 L20.6489993,36.511741 L19.3161452,36.511741 L19.3161452,37.8119858 Z M21.3144955,39.1122305 L18.650649,39.1122305 C18.2829972,39.1122305 17.9842219,38.82147 17.9842219,38.4616538 L17.9842219,35.8611643 C17.9842219,35.5013482 18.2829972,35.2105876 18.650649,35.2105876 L21.3144955,35.2105876 C21.6821473,35.2105876 21.9809225,35.5013482 21.9809225,35.8611643 L21.9809225,38.4616538 C21.9809225,38.82147 21.6821473,39.1122305 21.3144955,39.1122305 Z" id="shapes" fill="#1DA0CF"></path>
                </g>
              </g>
            </g>
          </g>
        </g>
      </g>
    </g>
  </g>
</svg>
